<?xml version="1.0" standalone="no"?>
<!DOCTYPE svg PUBLIC "-//W3C//DTD SVG 20010904//EN"
 "http://www.w3.org/TR/2001/REC-SVG-20010904/DTD/svg10.dtd">
<svg version="1.0" xmlns="http://www.w3.org/2000/svg"
 width="183.000000pt" height="212.000000pt" viewBox="0 0 183.000000 212.000000"
 preserveAspectRatio="xMidYMid meet">

<g transform="translate(0.000000,212.000000) scale(0.100000,-0.100000)"
fill="#000000" stroke="none">
<path d="M920 1964 c-37 -25 -170 -157 -170 -169 0 -5 -18 -39 -41 -74 l-40
-64 32 27 c145 122 379 127 542 10 l47 -34 -30 53 c-16 30 -30 62 -30 73 0 22
-103 128 -164 168 -46 31 -109 35 -146 10z"/>
<path d="M877 1626 c-82 -30 -143 -91 -173 -173 -59 -166 93 -338 244 -278 54
22 83 62 84 117 0 34 -5 47 -26 65 -44 37 -71 26 -78 -32 -4 -39 -40 -46 -74
-14 -34 32 -33 96 1 137 34 41 75 55 140 50 158 -13 228 -214 125 -356 -106
-146 -332 -154 -466 -15 -77 78 -117 209 -96 309 6 27 9 50 8 52 -3 3 -140
-212 -163 -257 -7 -13 -13 -30 -13 -37 0 -8 -4 -14 -10 -14 -5 0 -10 -5 -10
-10 0 -6 -5 -16 -10 -23 -41 -49 -60 -76 -135 -194 -47 -72 -85 -135 -85 -139
0 -3 16 8 35 24 57 51 118 81 206 103 108 28 199 22 334 -22 89 -28 109 -31
195 -27 85 3 105 8 165 37 223 110 301 372 169 567 -80 118 -240 175 -367 130z"/>
<path d="M1448 1312 c9 -160 -51 -293 -197 -434 -107 -105 -140 -153 -166
-242 -25 -86 -17 -212 17 -288 35 -76 109 -153 183 -191 55 -29 68 -32 160
-32 86 0 107 3 150 25 139 69 210 218 170 356 -28 98 -134 184 -226 184 -120
0 -222 -115 -189 -214 24 -73 107 -109 150 -66 28 28 24 50 -12 63 -21 7 -24
47 -6 65 17 17 79 15 106 -4 67 -46 69 -149 4 -218 -58 -62 -165 -75 -252 -31
-86 43 -130 123 -130 233 0 268 322 402 551 229 28 -21 49 -34 46 -30 -6 10
-347 633 -356 650 -4 7 -5 -18 -3 -55z"/>
<path d="M410 807 c-114 -33 -202 -105 -248 -205 -36 -78 -38 -193 -4 -267 50
-109 148 -175 262 -175 80 0 132 22 182 78 58 64 72 136 39 207 -29 64 -73 95
-133 95 -42 0 -54 -5 -79 -30 -22 -21 -29 -38 -27 -56 4 -36 31 -53 59 -36 41
26 78 -12 59 -62 -15 -40 -49 -61 -99 -61 -143 0 -202 194 -93 308 49 52 99
72 182 72 65 0 82 -4 128 -30 206 -114 208 -418 3 -560 -24 -16 -73 -39 -110
-52 l-66 -22 399 0 400 -1 -54 27 c-132 66 -244 224 -275 388 -44 228 -200
380 -403 391 -46 2 -95 -1 -122 -9z"/>
</g>
</svg>
